<?xml version="1.0" encoding="UTF-8"?>
<svg xmlns="http://www.w3.org/2000/svg" xmlns:xlink="http://www.w3.org/1999/xlink" width="375pt" height="374.999991pt" viewBox="0 0 375 374.999991" version="1.2">
<defs>
<clipPath id="clip1">
  <path d="M 5.070312 119.640625 L 123 119.640625 L 123 210.507812 L 5.070312 210.507812 Z M 5.070312 119.640625 "/>
</clipPath>
<clipPath id="clip2">
  <path d="M 252 119.640625 L 369.921875 119.640625 L 369.921875 210.507812 L 252 210.507812 Z M 252 119.640625 "/>
</clipPath>
<clipPath id="clip3">
  <path d="M 151.0625 137.324219 L 223.8125 137.324219 L 223.8125 210.074219 L 151.0625 210.074219 Z M 151.0625 137.324219 "/>
</clipPath>
<clipPath id="clip4">
  <path d="M 112.5 30.824219 L 262.5 30.824219 L 262.5 137.324219 L 112.5 137.324219 Z M 112.5 30.824219 "/>
</clipPath>
</defs>
<g id="surface1">
<rect x="0" y="0" width="375" height="374.999991" style="fill:rgb(100%,100%,100%);fill-opacity:1;stroke:none;"/>
<rect x="0" y="0" width="375" height="374.999991" style="fill:rgb(100%,100%,100%);fill-opacity:1;stroke:none;"/>
<rect x="0" y="0" width="375" height="374.999991" style="fill:rgb(100%,100%,100%);fill-opacity:1;stroke:none;"/>
<g clip-path="url(#clip1)" clip-rule="nonzero">
<path style=" stroke:none;fill-rule:nonzero;fill:rgb(12.939453%,11.369324%,11.369324%);fill-opacity:1;" d="M 71.792969 135.148438 C 39.945312 133.175781 29.164062 127.996094 16.421875 121.332031 C 3.683594 114.675781 2.457031 129.230469 8.828125 137.125 C 11.464844 140.394531 15.125 145.023438 20.308594 149.464844 L 20.304688 149.460938 C 20.304688 149.460938 19.554688 156.132812 25.089844 165.164062 C 30.011719 173.1875 37.191406 179.195312 45.425781 182.59375 C 45.285156 186.285156 47.140625 192.636719 59.542969 197.5625 C 78.164062 204.964844 95.5625 197.5625 95.5625 197.5625 C 63.652344 200.964844 55.324219 190.175781 53.175781 184.945312 C 58.667969 186.046875 64.425781 186.054688 70.167969 184.808594 C 72.558594 184.289062 74.996094 183.542969 77.429688 182.515625 C 77.429688 182.515625 38.851562 189.273438 26.65625 154.195312 L 26.640625 154.183594 C 33.3125 158.464844 41.875 161.921875 52.929688 162.777344 C 52.929688 162.777344 29.898438 157.597656 19.117188 142.796875 C 8.335938 127.996094 12.503906 124.789062 16.914062 125.527344 C 21.324219 126.269531 38.472656 140.082031 76.449219 140.578125 C 114.425781 141.070312 120.058594 177.085938 119.078125 180.789062 C 118.101562 184.488281 119.152344 197.804688 106.09375 204.222656 C 93.035156 210.644531 77.671875 202.992188 75.710938 201.511719 C 75.710938 201.511719 88.457031 217.792969 109.277344 207.183594 C 130.105469 196.574219 121.773438 168.453125 117.609375 161.546875 C 113.445312 154.636719 103.644531 137.125 71.792969 135.148438 "/>
</g>
<g clip-path="url(#clip2)" clip-rule="nonzero">
<path style=" stroke:none;fill-rule:nonzero;fill:rgb(12.939453%,11.369324%,11.369324%);fill-opacity:1;" d="M 358.574219 121.332031 C 345.832031 127.996094 335.054688 133.175781 303.203125 135.148438 C 271.351562 137.125 261.550781 154.636719 257.386719 161.546875 C 253.21875 168.453125 244.890625 196.574219 265.714844 207.183594 C 286.542969 217.792969 299.28125 201.511719 299.28125 201.511719 C 297.320312 202.992188 281.960938 210.644531 268.902344 204.222656 C 255.84375 197.804688 256.894531 184.488281 255.914062 180.789062 C 254.933594 177.085938 260.570312 141.070312 298.546875 140.578125 C 336.523438 140.082031 353.675781 126.269531 358.082031 125.527344 C 362.492188 124.789062 366.660156 127.996094 355.878906 142.796875 C 345.097656 157.597656 322.066406 162.777344 322.066406 162.777344 C 333.121094 161.921875 341.683594 158.464844 348.355469 154.183594 L 348.339844 154.195312 C 336.144531 189.273438 297.566406 182.515625 297.566406 182.515625 C 300 183.542969 302.4375 184.289062 304.832031 184.808594 C 310.566406 186.054688 316.332031 186.046875 321.820312 184.945312 C 319.671875 190.175781 311.34375 200.964844 279.4375 197.5625 C 279.4375 197.5625 296.832031 204.964844 315.453125 197.5625 C 327.855469 192.636719 329.710938 186.285156 329.570312 182.59375 C 337.800781 179.195312 344.980469 173.1875 349.90625 165.164062 C 355.441406 156.132812 354.691406 149.460938 354.691406 149.460938 L 354.6875 149.464844 C 359.871094 145.023438 363.527344 140.394531 366.167969 137.125 C 372.539062 129.230469 371.316406 114.675781 358.574219 121.332031 "/>
</g>
<g clip-path="url(#clip3)" clip-rule="nonzero">
<path style=" stroke:none;fill-rule:nonzero;fill:rgb(0%,0%,0%);fill-opacity:1;" d="M 187.421875 143.882812 C 197.128906 143.882812 198.277344 143.914062 202.121094 144.089844 C 205.65625 144.25 207.585938 144.839844 208.878906 145.347656 C 210.566406 146.003906 211.777344 146.800781 213.054688 148.074219 C 214.328125 149.347656 215.109375 150.5625 215.78125 152.25 C 216.273438 153.527344 216.863281 155.453125 217.039062 159.007812 C 217.214844 162.851562 217.246094 164 217.246094 173.707031 C 217.246094 183.414062 217.214844 184.5625 217.039062 188.402344 C 216.878906 191.941406 216.289062 193.871094 215.78125 195.160156 C 215.125 196.851562 214.328125 198.0625 213.054688 199.335938 C 211.777344 200.613281 210.566406 201.394531 208.878906 202.0625 C 207.601562 202.558594 205.675781 203.148438 202.121094 203.320312 C 198.277344 203.496094 197.128906 203.53125 187.421875 203.53125 C 177.714844 203.53125 176.566406 203.496094 172.726562 203.320312 C 169.1875 203.164062 167.257812 202.574219 165.96875 202.0625 C 164.277344 201.410156 163.066406 200.613281 161.792969 199.335938 C 160.515625 198.0625 159.734375 196.851562 159.066406 195.160156 C 158.570312 193.886719 157.980469 191.957031 157.804688 188.402344 C 157.632812 184.5625 157.597656 183.414062 157.597656 173.707031 C 157.597656 164 157.632812 162.851562 157.804688 159.007812 C 157.964844 155.46875 158.554688 153.542969 159.066406 152.25 C 159.71875 150.5625 160.515625 149.347656 161.792969 148.074219 C 163.066406 146.800781 164.277344 146.019531 165.96875 145.347656 C 167.242188 144.855469 169.171875 144.265625 172.726562 144.089844 C 176.566406 143.914062 177.714844 143.882812 187.421875 143.882812 M 187.421875 137.332031 C 177.539062 137.332031 176.3125 137.378906 172.421875 137.554688 C 168.550781 137.730469 165.902344 138.351562 163.59375 139.242188 C 161.203125 140.167969 159.175781 141.410156 157.152344 143.4375 C 155.144531 145.460938 153.902344 147.484375 152.976562 149.875 C 152.082031 152.1875 151.460938 154.832031 151.285156 158.707031 C 151.113281 162.578125 151.0625 163.824219 151.0625 173.691406 C 151.0625 183.574219 151.113281 184.800781 151.285156 188.6875 C 151.460938 192.5625 152.082031 195.207031 152.976562 197.519531 C 153.902344 199.910156 155.144531 201.933594 157.167969 203.960938 C 159.191406 205.984375 161.21875 207.226562 163.609375 208.152344 C 165.917969 209.042969 168.566406 209.667969 172.4375 209.839844 C 176.3125 210.015625 177.554688 210.066406 187.4375 210.066406 C 197.320312 210.066406 198.550781 210.015625 202.4375 209.839844 C 206.3125 209.667969 208.957031 209.042969 211.269531 208.152344 C 213.660156 207.226562 215.683594 205.984375 217.707031 203.960938 C 219.734375 201.933594 220.976562 199.910156 221.902344 197.519531 C 222.792969 195.207031 223.414062 192.5625 223.589844 188.6875 C 223.765625 184.816406 223.8125 183.574219 223.8125 173.691406 C 223.8125 163.808594 223.765625 162.578125 223.589844 158.691406 C 223.414062 154.816406 222.792969 152.171875 221.902344 149.859375 C 220.976562 147.46875 219.734375 145.445312 217.707031 143.417969 C 215.683594 141.394531 213.660156 140.152344 211.269531 139.226562 C 208.957031 138.335938 206.3125 137.714844 202.4375 137.539062 C 198.550781 137.378906 197.304688 137.332031 187.421875 137.332031 "/>
</g>
<path style=" stroke:none;fill-rule:nonzero;fill:rgb(0%,0%,0%);fill-opacity:1;" d="M 187.421875 155.023438 C 177.109375 155.023438 168.757812 163.375 168.757812 173.691406 C 168.757812 184.003906 177.125 192.371094 187.4375 192.371094 C 197.753906 192.371094 206.121094 184.019531 206.121094 173.691406 C 206.105469 163.375 197.734375 155.023438 187.421875 155.023438 M 187.421875 185.820312 C 180.726562 185.820312 175.308594 180.402344 175.308594 173.707031 C 175.308594 167.011719 180.726562 161.589844 187.421875 161.589844 C 194.117188 161.589844 199.539062 167.011719 199.539062 173.707031 C 199.554688 180.382812 194.117188 185.820312 187.421875 185.820312 "/>
<path style=" stroke:none;fill-rule:nonzero;fill:rgb(0%,0%,0%);fill-opacity:1;" d="M 211.207031 154.289062 C 211.207031 156.699219 209.246094 158.660156 206.835938 158.660156 C 204.429688 158.660156 202.46875 156.699219 202.46875 154.289062 C 202.46875 151.882812 204.429688 149.921875 206.835938 149.921875 C 209.246094 149.921875 211.207031 151.867188 211.207031 154.289062 "/>
<g clip-path="url(#clip4)" clip-rule="nonzero">
<path style=" stroke:none;fill-rule:evenodd;fill:rgb(0%,0%,0%);fill-opacity:1;" d="M 187.835938 82.824219 L 149.34375 137.328125 L 112.621094 137.328125 L 187.835938 30.824219 L 262.371094 137.328125 L 225.980469 137.328125 L 187.835938 82.824219 "/>
</g>
<path style=" stroke:none;fill-rule:nonzero;fill:rgb(100%,8.628845%,8.628845%);fill-opacity:1;" d="M 207.179688 149.742188 C 206.875 149.742188 206.574219 149.773438 206.273438 149.832031 C 205.972656 149.890625 205.683594 149.980469 205.398438 150.097656 C 205.117188 150.214844 204.847656 150.359375 204.59375 150.527344 C 204.339844 150.695312 204.105469 150.890625 203.890625 151.105469 C 203.671875 151.320312 203.480469 151.558594 203.3125 151.8125 C 203.140625 152.066406 202.996094 152.332031 202.882812 152.617188 C 202.765625 152.898438 202.675781 153.1875 202.617188 153.488281 C 202.554688 153.789062 202.527344 154.089844 202.527344 154.398438 C 202.527344 154.703125 202.554688 155.003906 202.617188 155.304688 C 202.675781 155.605469 202.765625 155.894531 202.882812 156.179688 C 202.996094 156.460938 203.140625 156.730469 203.3125 156.984375 C 203.480469 157.238281 203.671875 157.472656 203.890625 157.6875 C 204.105469 157.902344 204.339844 158.097656 204.59375 158.265625 C 204.847656 158.4375 205.117188 158.582031 205.398438 158.695312 C 205.683594 158.8125 205.972656 158.902344 206.273438 158.960938 C 206.574219 159.023438 206.875 159.050781 207.179688 159.050781 C 207.488281 159.050781 207.789062 159.023438 208.089844 158.960938 C 208.386719 158.902344 208.679688 158.8125 208.960938 158.695312 C 209.246094 158.582031 209.511719 158.4375 209.765625 158.265625 C 210.019531 158.097656 210.253906 157.902344 210.472656 157.6875 C 210.6875 157.472656 210.882812 157.238281 211.050781 156.984375 C 211.21875 156.730469 211.363281 156.460938 211.480469 156.179688 C 211.597656 155.894531 211.6875 155.605469 211.746094 155.304688 C 211.804688 155.003906 211.835938 154.703125 211.835938 154.398438 C 211.835938 154.089844 211.804688 153.789062 211.746094 153.488281 C 211.6875 153.1875 211.597656 152.898438 211.480469 152.617188 C 211.363281 152.332031 211.21875 152.066406 211.050781 151.8125 C 210.882812 151.558594 210.6875 151.320312 210.472656 151.105469 C 210.253906 150.890625 210.019531 150.695312 209.765625 150.527344 C 209.511719 150.359375 209.246094 150.214844 208.960938 150.097656 C 208.679688 149.980469 208.386719 149.890625 208.089844 149.832031 C 207.789062 149.773438 207.488281 149.742188 207.179688 149.742188 Z M 207.179688 149.742188 "/>
</g>
</svg>
