<?xml version="1.0" encoding="UTF-8"?>
<svg xmlns="http://www.w3.org/2000/svg" xmlns:xlink="http://www.w3.org/1999/xlink" width="375pt" height="374.999991pt" viewBox="0 0 375 374.999991" version="1.2">
<defs>
<clipPath id="clip1">
  <path d="M 5.070312 119.640625 L 123 119.640625 L 123 210.460938 L 5.070312 210.460938 Z M 5.070312 119.640625 "/>
</clipPath>
<clipPath id="clip2">
  <path d="M 252 119.640625 L 369.921875 119.640625 L 369.921875 210.460938 L 252 210.460938 Z M 252 119.640625 "/>
</clipPath>
<clipPath id="clip3">
  <path d="M 151.0625 137.324219 L 223.8125 137.324219 L 223.8125 210.074219 L 151.0625 210.074219 Z M 151.0625 137.324219 "/>
</clipPath>
<clipPath id="clip4">
  <path d="M 112.5 30.824219 L 262.5 30.824219 L 262.5 137.324219 L 112.5 137.324219 Z M 112.5 30.824219 "/>
</clipPath>
</defs>
<g id="surface1">
<rect x="0" y="0" width="375" height="374.999991" style="fill:rgb(100%,100%,100%);fill-opacity:1;stroke:none;"/>
<rect x="0" y="0" width="375" height="374.999991" style="fill:rgb(0%,0%,0%);fill-opacity:1;stroke:none;"/>
<g clip-path="url(#clip1)" clip-rule="nonzero">
<path style=" stroke:none;fill-rule:nonzero;fill:rgb(100%,100%,100%);fill-opacity:1;" d="M 71.792969 135.09375 C 39.945312 133.128906 29.164062 127.964844 16.421875 121.328125 C 3.683594 114.691406 2.457031 129.195312 8.828125 137.0625 C 11.464844 140.324219 15.125 144.9375 20.308594 149.359375 L 20.304688 149.359375 C 20.304688 149.359375 19.554688 156.007812 25.089844 165.007812 C 30.011719 173.003906 37.191406 178.992188 45.425781 182.378906 C 45.285156 186.058594 47.140625 192.382812 59.542969 197.296875 C 78.164062 204.671875 95.5625 197.296875 95.5625 197.296875 C 63.652344 200.6875 55.324219 189.9375 53.175781 184.722656 C 58.667969 185.820312 64.425781 185.828125 70.167969 184.585938 C 72.558594 184.066406 74.996094 183.324219 77.429688 182.300781 C 77.429688 182.300781 38.851562 189.035156 26.65625 154.074219 L 26.640625 154.0625 C 33.3125 158.332031 41.875 161.777344 52.929688 162.632812 C 52.929688 162.632812 29.898438 157.46875 19.117188 142.71875 C 8.335938 127.964844 12.503906 124.773438 16.914062 125.507812 C 21.324219 126.246094 38.472656 140.011719 76.449219 140.503906 C 114.425781 140.996094 120.058594 176.890625 119.078125 180.578125 C 118.101562 184.265625 119.152344 197.535156 106.09375 203.933594 C 93.035156 210.332031 77.671875 202.707031 75.710938 201.230469 C 75.710938 201.230469 88.457031 217.453125 109.277344 206.882812 C 130.105469 196.3125 121.773438 168.289062 117.609375 161.402344 C 113.445312 154.515625 103.644531 137.0625 71.792969 135.09375 "/>
</g>
<g clip-path="url(#clip2)" clip-rule="nonzero">
<path style=" stroke:none;fill-rule:nonzero;fill:rgb(100%,100%,100%);fill-opacity:1;" d="M 358.574219 121.328125 C 345.832031 127.964844 335.054688 133.128906 303.203125 135.09375 C 271.351562 137.0625 261.550781 154.515625 257.386719 161.402344 C 253.21875 168.289062 244.890625 196.3125 265.714844 206.882812 C 286.542969 217.453125 299.28125 201.230469 299.28125 201.230469 C 297.320312 202.707031 281.960938 210.332031 268.902344 203.933594 C 255.84375 197.535156 256.894531 184.265625 255.914062 180.578125 C 254.933594 176.890625 260.570312 140.996094 298.546875 140.503906 C 336.523438 140.011719 353.675781 126.246094 358.082031 125.507812 C 362.492188 124.773438 366.660156 127.964844 355.878906 142.71875 C 345.097656 157.46875 322.066406 162.632812 322.066406 162.632812 C 333.121094 161.777344 341.683594 158.332031 348.355469 154.0625 L 348.339844 154.074219 C 336.144531 189.035156 297.566406 182.300781 297.566406 182.300781 C 300 183.324219 302.4375 184.066406 304.832031 184.585938 C 310.566406 185.828125 316.332031 185.820312 321.820312 184.722656 C 319.671875 189.9375 311.34375 200.6875 279.4375 197.296875 C 279.4375 197.296875 296.832031 204.671875 315.453125 197.296875 C 327.855469 192.382812 329.710938 186.058594 329.570312 182.378906 C 337.800781 178.992188 344.980469 173.003906 349.90625 165.007812 C 355.441406 156.007812 354.691406 149.359375 354.691406 149.359375 L 354.6875 149.359375 C 359.871094 144.9375 363.527344 140.324219 366.167969 137.0625 C 372.539062 129.195312 371.316406 114.691406 358.574219 121.328125 "/>
</g>
<g clip-path="url(#clip3)" clip-rule="nonzero">
<path style=" stroke:none;fill-rule:nonzero;fill:rgb(100%,100%,100%);fill-opacity:1;" d="M 187.421875 143.882812 C 197.128906 143.882812 198.277344 143.914062 202.121094 144.089844 C 205.65625 144.25 207.585938 144.839844 208.878906 145.347656 C 210.566406 146.003906 211.777344 146.800781 213.054688 148.074219 C 214.328125 149.347656 215.109375 150.5625 215.78125 152.25 C 216.273438 153.527344 216.863281 155.453125 217.039062 159.007812 C 217.214844 162.851562 217.246094 164 217.246094 173.707031 C 217.246094 183.414062 217.214844 184.5625 217.039062 188.402344 C 216.878906 191.941406 216.289062 193.871094 215.78125 195.160156 C 215.125 196.851562 214.328125 198.0625 213.054688 199.335938 C 211.777344 200.613281 210.566406 201.394531 208.878906 202.0625 C 207.601562 202.558594 205.675781 203.148438 202.121094 203.320312 C 198.277344 203.496094 197.128906 203.527344 187.421875 203.527344 C 177.714844 203.527344 176.566406 203.496094 172.726562 203.320312 C 169.1875 203.164062 167.257812 202.574219 165.96875 202.0625 C 164.277344 201.410156 163.066406 200.613281 161.792969 199.335938 C 160.515625 198.0625 159.734375 196.851562 159.066406 195.160156 C 158.570312 193.886719 157.980469 191.957031 157.804688 188.402344 C 157.632812 184.5625 157.597656 183.414062 157.597656 173.707031 C 157.597656 164 157.632812 162.851562 157.804688 159.007812 C 157.964844 155.46875 158.554688 153.542969 159.066406 152.25 C 159.71875 150.5625 160.515625 149.347656 161.792969 148.074219 C 163.066406 146.800781 164.277344 146.019531 165.96875 145.347656 C 167.242188 144.855469 169.171875 144.265625 172.726562 144.089844 C 176.566406 143.914062 177.714844 143.882812 187.421875 143.882812 M 187.421875 137.332031 C 177.539062 137.332031 176.3125 137.378906 172.421875 137.554688 C 168.550781 137.730469 165.902344 138.351562 163.59375 139.242188 C 161.203125 140.167969 159.175781 141.410156 157.152344 143.4375 C 155.144531 145.460938 153.902344 147.484375 152.976562 149.875 C 152.082031 152.1875 151.460938 154.832031 151.285156 158.707031 C 151.113281 162.578125 151.0625 163.824219 151.0625 173.691406 C 151.0625 183.574219 151.113281 184.800781 151.285156 188.6875 C 151.460938 192.5625 152.082031 195.207031 152.976562 197.519531 C 153.902344 199.910156 155.144531 201.933594 157.167969 203.960938 C 159.191406 205.984375 161.21875 207.226562 163.609375 208.152344 C 165.917969 209.042969 168.566406 209.667969 172.4375 209.839844 C 176.3125 210.015625 177.554688 210.066406 187.4375 210.066406 C 197.320312 210.066406 198.550781 210.015625 202.4375 209.839844 C 206.3125 209.667969 208.957031 209.042969 211.269531 208.152344 C 213.660156 207.226562 215.683594 205.984375 217.707031 203.960938 C 219.734375 201.933594 220.976562 199.910156 221.902344 197.519531 C 222.792969 195.207031 223.414062 192.5625 223.589844 188.6875 C 223.765625 184.816406 223.8125 183.574219 223.8125 173.691406 C 223.8125 163.808594 223.765625 162.578125 223.589844 158.691406 C 223.414062 154.816406 222.792969 152.171875 221.902344 149.859375 C 220.976562 147.46875 219.734375 145.445312 217.707031 143.417969 C 215.683594 141.394531 213.660156 140.152344 211.269531 139.226562 C 208.957031 138.335938 206.3125 137.714844 202.4375 137.539062 C 198.550781 137.378906 197.304688 137.332031 187.421875 137.332031 "/>
</g>
<path style=" stroke:none;fill-rule:nonzero;fill:rgb(100%,100%,100%);fill-opacity:1;" d="M 187.421875 155.023438 C 177.109375 155.023438 168.757812 163.375 168.757812 173.691406 C 168.757812 184.003906 177.125 192.371094 187.4375 192.371094 C 197.753906 192.371094 206.121094 184.019531 206.121094 173.691406 C 206.105469 163.375 197.734375 155.023438 187.421875 155.023438 M 187.421875 185.820312 C 180.726562 185.820312 175.308594 180.402344 175.308594 173.707031 C 175.308594 167.011719 180.726562 161.589844 187.421875 161.589844 C 194.117188 161.589844 199.539062 167.011719 199.539062 173.707031 C 199.554688 180.382812 194.117188 185.820312 187.421875 185.820312 "/>
<path style=" stroke:none;fill-rule:nonzero;fill:rgb(100%,100%,100%);fill-opacity:1;" d="M 211.207031 154.289062 C 211.207031 156.699219 209.246094 158.660156 206.835938 158.660156 C 204.429688 158.660156 202.46875 156.699219 202.46875 154.289062 C 202.46875 151.882812 204.429688 149.921875 206.835938 149.921875 C 209.246094 149.921875 211.207031 151.867188 211.207031 154.289062 "/>
<g clip-path="url(#clip4)" clip-rule="nonzero">
<path style=" stroke:none;fill-rule:evenodd;fill:rgb(100%,100%,100%);fill-opacity:1;" d="M 187.835938 82.824219 L 149.34375 137.328125 L 112.621094 137.328125 L 187.835938 30.824219 L 262.371094 137.328125 L 225.980469 137.328125 L 187.835938 82.824219 "/>
</g>
<path style=" stroke:none;fill-rule:nonzero;fill:rgb(100%,8.628845%,8.628845%);fill-opacity:1;" d="M 206.738281 149.8125 C 206.433594 149.8125 206.128906 149.84375 205.828125 149.902344 C 205.53125 149.960938 205.238281 150.050781 204.957031 150.167969 C 204.675781 150.285156 204.40625 150.429688 204.152344 150.597656 C 203.898438 150.769531 203.664062 150.960938 203.445312 151.175781 C 203.230469 151.394531 203.039062 151.628906 202.867188 151.882812 C 202.699219 152.136719 202.554688 152.40625 202.4375 152.6875 C 202.320312 152.96875 202.230469 153.261719 202.171875 153.558594 C 202.113281 153.859375 202.082031 154.164062 202.082031 154.46875 C 202.082031 154.773438 202.113281 155.078125 202.171875 155.375 C 202.230469 155.675781 202.320312 155.96875 202.4375 156.25 C 202.554688 156.53125 202.699219 156.800781 202.867188 157.054688 C 203.039062 157.308594 203.230469 157.542969 203.445312 157.757812 C 203.664062 157.976562 203.898438 158.167969 204.152344 158.339844 C 204.40625 158.507812 204.675781 158.652344 204.957031 158.769531 C 205.238281 158.886719 205.53125 158.972656 205.828125 159.03125 C 206.128906 159.09375 206.433594 159.121094 206.738281 159.121094 C 207.042969 159.121094 207.347656 159.09375 207.644531 159.03125 C 207.945312 158.972656 208.238281 158.886719 208.519531 158.769531 C 208.800781 158.652344 209.070312 158.507812 209.324219 158.339844 C 209.578125 158.167969 209.8125 157.976562 210.027344 157.757812 C 210.246094 157.542969 210.4375 157.308594 210.609375 157.054688 C 210.777344 156.800781 210.921875 156.53125 211.039062 156.25 C 211.15625 155.96875 211.242188 155.675781 211.300781 155.375 C 211.363281 155.078125 211.390625 154.773438 211.390625 154.46875 C 211.390625 154.164062 211.363281 153.859375 211.300781 153.558594 C 211.242188 153.261719 211.15625 152.96875 211.039062 152.6875 C 210.921875 152.40625 210.777344 152.136719 210.609375 151.882812 C 210.4375 151.628906 210.246094 151.394531 210.027344 151.175781 C 209.8125 150.960938 209.578125 150.769531 209.324219 150.597656 C 209.070312 150.429688 208.800781 150.285156 208.519531 150.167969 C 208.238281 150.050781 207.945312 149.960938 207.644531 149.902344 C 207.347656 149.84375 207.042969 149.8125 206.738281 149.8125 Z M 206.738281 149.8125 "/>
</g>
</svg>
